# Tiled2Unity generated file. Do not modify by hand.
# Wavefront file for 'Level1Map_mesh_0005.obj'

# Vertices (Count = 40)
v -16000 -2200 0
v -16100 -2200 0
v -16100 -2100 0
v -16000 -2100 0
v -16100 -2200 0
v -16200 -2200 0
v -16200 -2100 0
v -16100 -2100 0
v -16200 -2200 0
v -16300 -2200 0
v -16300 -2100 0
v -16200 -2100 0
v -16300 -2200 0
v -16400 -2200 0
v -16400 -2100 0
v -16300 -2100 0
v -16400 -2200 0
v -16500 -2200 0
v -16500 -2100 0
v -16400 -2100 0
v -16500 -2200 0
v -16600 -2200 0
v -16600 -2100 0
v -16500 -2100 0
v -14500 -2400 0
v -14600 -2400 0
v -14600 -2300 0
v -14500 -2300 0
v -14600 -2400 0
v -14700 -2400 0
v -14700 -2300 0
v -14600 -2300 0
v -14700 -2400 0
v -14800 -2400 0
v -14800 -2300 0
v -14700 -2300 0
v -14800 -3300 0
v -14900 -3300 0
v -14900 -3200 0
v -14800 -3200 0

# Texture cooridinates (Count = 4)
vt 0 0
vt 1 0
vt 1 1
vt 0 1

# Normal
vn 0 0 -1

# Mesh description
g Level1Map_mesh_0005

# Faces
f 1/1/1 2/2/1 3/3/1 4/4/1
f 5/1/1 6/2/1 7/3/1 8/4/1
f 9/1/1 10/2/1 11/3/1 12/4/1
f 13/1/1 14/2/1 15/3/1 16/4/1
f 17/1/1 18/2/1 19/3/1 20/4/1
f 21/1/1 22/2/1 23/3/1 24/4/1
f 25/1/1 26/2/1 27/3/1 28/4/1
f 29/1/1 30/2/1 31/3/1 32/4/1
f 33/1/1 34/2/1 35/3/1 36/4/1
f 37/1/1 38/2/1 39/3/1 40/4/1

