# Tiled2Unity generated file. Do not modify by hand.
# Wavefront file for 'Level1Map_mesh_0008.obj'

# Vertices (Count = 12)
v -15400 -3200 0
v -15500 -3200 0
v -15500 -3100 0
v -15400 -3100 0
v -15500 -3300 0
v -15600 -3300 0
v -15600 -3200 0
v -15500 -3200 0
v -15600 -3400 0
v -15700 -3400 0
v -15700 -3300 0
v -15600 -3300 0

# Texture cooridinates (Count = 4)
vt 0 0
vt 1 0
vt 1 1
vt 0 1

# Normal
vn 0 0 -1

# Mesh description
g Level1Map_mesh_0008

# Faces
f 1/1/1 2/2/1 3/3/1 4/4/1
f 5/1/1 6/2/1 7/3/1 8/4/1
f 9/1/1 10/2/1 11/3/1 12/4/1

